<svg xmlns="http://www.w3.org/2000/svg" viewBox="0 0 800 300">
 <defs><linearGradient id="sky" x1="0" y1="0" x2="0" y2="1"><stop stop-color="#0b1015"/><stop offset="1" stop-color="#283741"/></linearGradient><linearGradient id="shade"><stop stop-color="#000" stop-opacity="0"/><stop offset="1" stop-color="#000" stop-opacity=".65"/></linearGradient></defs>
 <rect width="800" height="300" fill="url(#sky)"/><circle cx="652" cy="60" r="36" fill="#d1c38e" opacity=".08"/>
 <path d="M0 240 L125 170 L240 215 L350 150 L475 205 L595 140 L720 210 L800 180 L800 300 L0 300Z" fill="#283741"/><path d="M286 300 L322 166 L515 166 L555 300Z" fill="#070606"/><ellipse cx="418" cy="186" rx="94" ry="48" fill="#15110e"/><g stroke="#d1c38e" stroke-width="4" opacity=".42"><path d="M360 185 l-28 70"/><path d="M474 185 l31 70"/><path d="M414 168 v116"/></g><g opacity=".82" transform="translate(60 65)"><circle r="28" fill="#7d75b5" opacity=".12"/><path d="M-22 20 L0 -18 L22 20 Z" fill="none" stroke="#d1c38e" stroke-width="3"/><circle cy="5" r="5" fill="#d1c38e" opacity=".5"/></g><rect y="210" width="800" height="90" fill="url(#shade)"/>
 <rect x="18" y="18" width="360" height="42" rx="8" fill="#070707" opacity=".62"/><text x="34" y="46" font-family="Georgia,serif" font-size="24" font-weight="700" fill="#ead9b7">Moinho Velho</text>
 </svg>