<svg xmlns="http://www.w3.org/2000/svg" viewBox="0 0 800 300">
 <defs><linearGradient id="sky" x1="0" y1="0" x2="0" y2="1"><stop stop-color="#0b1015"/><stop offset="1" stop-color="#283741"/></linearGradient><linearGradient id="shade"><stop stop-color="#000" stop-opacity="0"/><stop offset="1" stop-color="#000" stop-opacity=".65"/></linearGradient></defs>
 <rect width="800" height="300" fill="url(#sky)"/><circle cx="647" cy="55" r="36" fill="#d1c38e" opacity=".08"/>
 <path d="M0 250 L85 190 L180 215 L260 160 L365 215 L470 145 L590 210 L690 170 L800 225 L800 300 L0 300Z" fill="#283741"/><g fill="#080a0c"><rect x="120" y="175" width="62" height="65"/><polygon points="110,175 150,140 192,175"/><rect x="335" y="160" width="72" height="82"/><polygon points="325,160 371,118 418,160"/><rect x="555" y="180" width="72" height="62"/><polygon points="545,180 590,145 638,180"/></g><g opacity=".82" transform="translate(170 87)"><circle r="28" fill="#7d75b5" opacity=".12"/><path d="M-22 20 L0 -18 L22 20 Z" fill="none" stroke="#d1c38e" stroke-width="3"/><circle cy="5" r="5" fill="#d1c38e" opacity=".5"/></g><rect y="210" width="800" height="90" fill="url(#shade)"/>
 <rect x="18" y="18" width="360" height="42" rx="8" fill="#070707" opacity=".62"/><text x="34" y="46" font-family="Georgia,serif" font-size="24" font-weight="700" fill="#ead9b7">Portão de Derenfall</text>
 </svg>